<svg xmlns="http://www.w3.org/2000/svg" viewBox="0 0 24 24"><path d="M12 4c-1.933 0-3.5 1.567-3.5 3.5S10.067 11 12 11s3.5-1.567 3.5-3.5S13.933 4 12 4zm0 2c.827 0 1.5.673 1.5 1.5S12.827 9 12 9s-1.5-.673-1.5-1.5S11.173 6 12 6zM4.5 7C3.119 7 2 8.119 2 9.5S3.119 12 4.5 12 7 10.881 7 9.5 5.881 7 4.5 7zm15 0C18.119 7 17 8.119 17 9.5s1.119 2.5 2.5 2.5S22 10.881 22 9.5 20.881 7 19.5 7zm-15 1.7227c.429 0 .7773.3483.7773.7773a.7777.7777 0 0 1-.7773.7773.7777.7777 0 0 1-.7773-.7773c0-.429.3483-.7773.7773-.7773zm15 0c.429 0 .7773.3483.7773.7773a.7777.7777 0 0 1-.7773.7773.7777.7777 0 0 1-.7773-.7773c0-.429.3483-.7773.7773-.7773zM12 13c-1.4747 0-3.8742.4683-5.4453 1.3984C5.9135 14.1553 5.2113 14 4.5 14 2.263 14 0 15.3976 0 16.9316V20h24v-3.0684C24 15.3976 21.737 14 19.5 14c-.7113 0-1.4135.1553-2.0547.3984C15.8742 13.4683 13.4747 13 12 13zm0 2c2.134 0 4.622.9614 5 1.5664V18H7v-1.4336C7.378 15.9614 9.866 15 12 15zm-7.5 1c.198 0 .3767.034.5586.0625A1.7114 1.7114 0 0 0 5 16.5V18H2v-.9902C2.184 16.6898 3.198 16 4.5 16zm15 0c1.302 0 2.316.6898 2.5 1.0098V18h-3v-1.5c0-.1506-.0214-.2966-.0586-.4375.1819-.0285.3607-.0625.5586-.0625z"/></svg>