<svg xmlns="http://www.w3.org/2000/svg" viewBox="0 0 24 24"><path d="M12 2C6.489 2 2 6.489 2 12s4.489 10 10 10 10-4.489 10-10S17.511 2 12 2zm0 2c.3395 0 .6719.0277 1 .0684v.9394l-3.0078.0235c-.549.004-.9922.451-.9922 1V8H8c-.552 0-1 .447-1 1v1.1855L4.9746 8.1602C6.3301 5.6778 8.9631 4 12 4zm3 .584c2.9351 1.1834 5 4.0486 5 7.416 0 1.5359-.4364 2.9635-1.1816 4.1797C18.504 15.4862 17.8098 15 17 15h-1v-2c0-.553-.448-1-1-1H9v-2h1c.552 0 1-.447 1-1V7.0234l2.0156-.0156c1.094-.007 1.9844-.905 1.9844-2V4.584zM4.205 10.2188L9 15.0137V16c0 1.103.897 2 2 2v1.9316C7.0458 19.4412 4 16.0906 4 12c0-.6137.0753-1.2078.205-1.7813zM10.7794 14H14v2c0 .553.448 1 1 1h2v1.248c-1.1234.8992-2.4955 1.497-4 1.6836V17c0-.553-.448-1-1-1h-1v-1.4004c0-.2218-.0874-.4264-.2207-.5996z" font-family="sans-serif" font-weight="400" overflow="visible" style="line-height:normal;text-indent:0;text-align:start;text-decoration-line:none;text-decoration-style:solid;text-decoration-color:#000;text-transform:none;block-progression:tb;isolation:auto;mix-blend-mode:normal" white-space="normal"/></svg>