<svg xmlns="http://www.w3.org/2000/svg" viewBox="0 0 24 24"><path d="M12 3C9.8027 3 8 4.8027 8 7c0 2.1973 1.8027 4 4 4 2.1973 0 4-1.8027 4-4 0-2.1973-1.8027-4-4-4zm0 2c1.1164 0 2 .8836 2 2s-.8836 2-2 2-2-.8836-2-2 .8836-2 2-2zm0 9c-1.745 0-3.8128.4098-5.5508 1.0957-.869.343-1.6545.7503-2.2832 1.2734C3.5373 16.8922 3 17.5994 3 18.5V21h18v-2.5c0-.9006-.5373-1.6078-1.166-2.1309-.6287-.523-1.4142-.9304-2.2832-1.2734C15.8128 14.4097 13.745 14 12 14zm0 2c1.414 0 3.346.374 4.8184.955.7361.2906 1.3586.637 1.7363.9513.3777.3142.4453.5283.4453.5937v.5H5v-.5c0-.0654.0676-.2795.4453-.5938.3777-.3142 1.0002-.6606 1.7363-.9511C8.654 16.374 10.586 16 12 16z" font-family="sans-serif" font-weight="400" overflow="visible" style="line-height:normal;text-indent:0;text-align:start;text-decoration-line:none;text-decoration-style:solid;text-decoration-color:#000;text-transform:none;block-progression:tb;isolation:auto;mix-blend-mode:normal" white-space="normal"/></svg>