<svg xmlns="http://www.w3.org/2000/svg" viewBox="0 0 24 24"><path d="M4.004 2a1.0001 1.0001 0 0 0-1 1S3 9.2464 3 12.5c0 2.6668 2.2927 4.8371 4.371 6.5254 2.0785 1.6883 4.1407 2.8457 4.1407 2.8457a1.0001 1.0001 0 0 0 .9805 0s2.0612-1.1574 4.1387-2.8457C18.7083 17.337 21 15.1665 21 12.5V3a1.0001 1.0001 0 0 0-1-1H4.004zm1 2H19v8.5c0 1.3335-1.7073 3.413-3.629 4.9746-1.6772 1.3632-2.9667 2.0827-3.369 2.3164-.4025-.2336-1.6929-.9531-3.3711-2.3164C6.7083 15.913 5 13.8332 5 12.5c0-2.91.0034-7.4149.004-8.5zM7 8c0 1.105.895 2 2 2s2-.895 2-2H7zm6 0c0 1.105.895 2 2 2s2-.895 2-2h-4zm-4 5c0 1.657 1.343 3 3 3s3-1.343 3-3H9z"/></svg>