<svg xmlns="http://www.w3.org/2000/svg" viewBox="0 0 32 32" enable-background="new 0 0 32 32">
    <path style="text-indent:0;text-align:start;line-height:normal;text-transform:none;block-progression:tb;-inkscape-font-specification:Bitstream Vera Sans" d="M 27.5625 2.59375 L 27.28125 2.8125 C 27.28125 2.8125 26.696029 3.2561983 25.875 3.71875 C 25.053971 4.1813017 24.005373 4.59375 23.40625 4.59375 L 23.3125 4.59375 C 23.3125 4.59375 23.33278 5.0646617 23.34375 5.53125 L 22.71875 4.875 C 18.715574 8.6780169 11.71875 15.375 11.71875 15.375 L 10.96875 16.0625 L 11.03125 16.125 L 3.3125 23.59375 L 2.59375 24.28125 L 3.28125 25 L 5.875 27.6875 L 6.21875 28.03125 L 6.6875 28 C 6.6875 28 7.7366369 27.93197 9.03125 27.625 C 10.325863 27.31803 11.8935 26.82525 13 25.71875 C 13.953986 24.764764 14.398219 23.873572 14.8125 23.09375 C 15.117713 22.519233 15.430027 21.961902 16 21.28125 L 16.78125 22.09375 L 17.46875 22.8125 L 18.1875 22.125 C 23.416681 16.99638 26.114916 13.725775 27.53125 11 C 28.947584 8.274225 29 6.1004167 29 3.59375 L 29 2.59375 L 28 2.59375 L 27.90625 2.59375 L 27.5625 2.59375 z M 26.90625 5.4375 C 26.83514 6.9701215 26.637011 8.3866715 25.75 10.09375 C 24.587126 12.331734 22.09548 15.392526 17.5 19.96875 L 13.8125 16.125 C 14.613128 15.358798 20.147256 10.072615 23.90625 6.5 C 25.00444 6.3716238 26.019156 5.93331 26.84375 5.46875 C 26.87743 5.449773 26.87321 5.456462 26.90625 5.4375 z M 26 13.5 C 26 13.5 24.5 16.7 24.5 17.5 C 24.5 18.3 25.2 19 26 19 C 26.8 19 27.5 18.3 27.5 17.5 C 27.5 16.7 26 13.5 26 13.5 z M 12.4375 17.5625 L 14.59375 19.8125 C 13.816444 20.714753 13.376244 21.506849 13.03125 22.15625 C 12.595531 22.976428 12.339764 23.535236 11.59375 24.28125 C 11.00025 24.87475 9.7241369 25.38822 8.59375 25.65625 C 7.6855522 25.871596 7.2076231 25.911342 6.9375 25.9375 L 5.40625 24.3125 L 12.4375 17.5625 z M 23.5 21 C 23.5 21 22.5 22.4 22.5 23 C 22.5 23.6 22.9 24 23.5 24 C 24.1 24 24.5 23.6 24.5 23 C 24.5 22.4 23.5 21 23.5 21 z" color="#000" overflow="visible" enable-background="accumulate" font-family="Bitstream Vera Sans"/>
</svg>