<svg xmlns="http://www.w3.org/2000/svg" viewBox="0 0 24 24"><path d="M3 2v16.5C3 20.313 4.2199 22 6 22h13c1.7801 0 3-1.687 3-3.5S20.7801 15 19 15V2h-3c0 .552-.448 1-1 1s-1-.448-1-1h-2c0 .552-.448 1-1 1s-1-.448-1-1H8c0 .552-.448 1-1 1s-1-.448-1-1H3zm2 3h12v10H6c-.3603 0-.691.0837-1 .209V5zm2 2v2h8V7H7zm0 4v2h5v-2H7zm-1 6c.429 0 1 .5516 1 1.5S6.429 20 6 20c-.429 0-1-.5516-1-1.5S5.571 17 6 17zm2.6992 0H19c.4299 0 1 .551 1 1.5s-.5701 1.5-1 1.5H8.6992c.1885-.466.3008-.975.3008-1.5s-.1123-1.034-.3008-1.5z" style="line-height:normal;text-indent:0;text-align:start;text-decoration-line:none;text-decoration-style:solid;text-decoration-color:#000;text-transform:none;block-progression:tb;isolation:auto;mix-blend-mode:normal"/></svg>